
      <svg xmlns="http://www.w3.org/2000/svg" width="39.117" height="50.126" viewBox="0 0 39.117 50.126">
       
       
        <g id="ecology" transform="translate(-56.226 0)">
            <path id="Path_25" data-name="Path 25" d="M94.435,6.238H93.019A26.079,26.079,0,0,1,76.458.3,1.33,1.33,0,0,0,74.79.285,27.843,27.843,0,0,1,57.583,6.238h-.449a.908.908,0,0,0-.908.908V28.768c0,10.336,8.379,21.359,18.715,21.359h1.688c10.336,0,18.715-11.023,18.715-21.359V7.146a.908.908,0,0,0-.908-.908Z" transform="translate(0 0)" fill="#00a763"/>
                <path id="Path_26" data-name="Path 26" d="M274.651,6.352h-1.416A26.079,26.079,0,0,1,256.673.418,1.33,1.33,0,0,0,256,.127V50.241h.844c10.336,0,18.715-11.023,18.715-21.359V7.26a.908.908,0,0,0-.908-.908Z" transform="translate(-180.216 -0.114)" fill="#008475"/>
                    <g id="Group_19" data-name="Group 19" transform="translate(65.231 10.06)">
                        <path id="Path_27" data-name="Path 27" d="M166.107,109.558l-6.4-6.4a1.361,1.361,0,0,0-1.925,0l-6.4,6.4a10.883,10.883,0,0,0,0,15.374l6.4,6.4a1.361,1.361,0,0,0,1.925,0l6.4-6.4A10.883,10.883,0,0,0,166.107,109.558Z" transform="translate(-148.201 -102.758)" fill="#bee75e"/>
                        <path id="Path_28" data-name="Path 28" d="M256.844,103.157a1.356,1.356,0,0,0-.962-.4v28.973a1.356,1.356,0,0,0,.962-.4l6.4-6.4a10.883,10.883,0,0,0,0-15.374Z" transform="translate(-245.34 -102.758)" fill="#00cb75"/>
                        <path id="Path_29" data-name="Path 29" d="M210.417,173a1.469,1.469,0,0,0-2.077,0l-.567.567v-4.486a1.469,1.469,0,0,0-2.937,0v4.486l-1.405-1.4a1.469,1.469,0,0,0-2.077,2.077l3.482,3.482v15.021a1.469,1.469,0,1,0,2.937,0V177.724l2.644-2.644A1.468,1.468,0,0,0,210.417,173Z" transform="translate(-195.763 -161.266)" fill="#9bda05"/>
                        <path id="Path_30" data-name="Path 30" d="M257.917,173l-.567.567v-4.486a1.469,1.469,0,0,0-1.469-1.469v26.6a1.469,1.469,0,0,0,1.469-1.469V177.724l2.644-2.644A1.469,1.469,0,1,0,257.917,173Z" transform="translate(-245.339 -161.266)" fill="#00a763"/>
                    </g>
        </g>

                       

       <g id="Group_10177" data-name="Group 10177" transform="translate(-277.15 -408.823)">
            <path id="Path_2109" data-name="Path 2109" d="M282.628,416.219a.558.558,0,0,0-.051-.046.681.681,0,0,0-.959.1,20.3,20.3,0,0,0-4.464,10.8c0,.023,0,.045,0,.068a.683.683,0,0,0,.682.682h6.454l.115-.009v-.006a.686.686,0,0,0,.555-.569,12.73,12.73,0,0,1,2.312-5.579.678.678,0,0,0-.071-.888Zm3.2,5.118a13.95,13.95,0,0,0-2.119,5.113H278.6a19.035,19.035,0,0,1,3.609-8.722Z" fill="#646d82"/>
            <path id="Path_2110" data-name="Path 2110" d="M296.147,415.888c0-.029,0-.057,0-.091v-6.29a.68.68,0,0,0-.751-.678A20.3,20.3,0,0,0,284.6,413.29a.525.525,0,0,0-.052.045.684.684,0,0,0,0,.965l4.491,4.5.068.072a.685.685,0,0,0,.4.194l.08.009h0a.681.681,0,0,0,.4-.13,12.709,12.709,0,0,1,5.578-2.312A.678.678,0,0,0,296.147,415.888Zm-1.365-5.617v5.11a13.965,13.965,0,0,0-5.111,2.119l-3.614-3.62A19.026,19.026,0,0,1,294.782,410.271Z" fill="#646d82"/>
            <path id="Path_2111" data-name="Path 2111" d="M310.495,414.244a.682.682,0,0,0-.1-.96,19.947,19.947,0,0,0-1.927-1.384l-.032-.02a.682.682,0,0,0-.7,1.172c.4.253.806.531,1.2.826l-3.611,3.621a12.961,12.961,0,0,0-1.274-.759,11.234,11.234,0,0,0-1.076-.512,13.7,13.7,0,0,0-2.719-.837l-.04-.008v-5.109c.564.083,1.128.191,1.674.323l.04.009a.682.682,0,0,0,.283-1.334,19.824,19.824,0,0,0-2.612-.446.678.678,0,0,0-.754.675v6.291a.72.72,0,0,1,0,.079.68.68,0,0,0,.579.751c.2.028.378.06.556.1a12.349,12.349,0,0,1,2.461.756,10.46,10.46,0,0,1,.968.465,11.766,11.766,0,0,1,1.586.992.679.679,0,0,0,.4.135h0a.678.678,0,0,0,.483-.2l4.556-4.575A.65.65,0,0,0,310.495,414.244Z" fill="#646d82"/>
            <path id="Path_2112" data-name="Path 2112" d="M304.412,411.375c.306.11.621.24.992.409a.668.668,0,0,0,.284.063h0a.683.683,0,0,0,.283-1.3c-.4-.184-.761-.331-1.093-.451a.682.682,0,0,0-.468,1.281Z" fill="#646d82"/>
            <path id="Path_2113" data-name="Path 2113" d="M313.381,416.27c-.014-.017-.028-.034-.044-.05a.678.678,0,0,0-.483-.2h0a.673.673,0,0,0-.482.2l-4.5,4.489-.074.069a.681.681,0,0,0-.069.887,12.7,12.7,0,0,1,2.313,5.579.677.677,0,0,0,.674.579h.009a.325.325,0,0,0,.054-.007h6.393l.061,0a.686.686,0,0,0,.611-.748A20.307,20.307,0,0,0,313.381,416.27Zm3.017,10.184H311.29a13.942,13.942,0,0,0-2.117-5.112l3.617-3.614A19.02,19.02,0,0,1,316.4,426.454Z" fill="#646d82"/>
            <path id="Path_2114" data-name="Path 2114" d="M301.3,420.447a.683.683,0,0,0-.926.279l-2.693,5.456c-.062,0-.121-.019-.184-.019a3.044,3.044,0,1,0,1.506.419l2.6-5.256A.685.685,0,0,0,301.3,420.447Zm-3.8,10.369a1.645,1.645,0,0,1,0-3.29h.044a1.647,1.647,0,0,1,1.6,1.645A1.648,1.648,0,0,1,297.5,430.816Z" fill="#646d82"/>
        </g>
                                
                                
        <g id="Group_10003" data-name="Group 10003" transform="translate(0 0)">
            <path id="Path_2029" data-name="Path 2029" d="M5.489,368H1.852a1.82,1.82,0,0,0-1.818,1.818V377.7a.606.606,0,0,0,.606.606H6.7a.606.606,0,0,0,.606-.606v-7.879A1.82,1.82,0,0,0,5.489,368Zm.606,9.091H1.246v-7.273a.607.607,0,0,1,.606-.606H5.488a.607.607,0,0,1,.606.606v7.273Z" transform="translate(-0.034 -341.937)" fill="#646d82"/>
            <path id="Path_2030" data-name="Path 2030" d="M142.022,248.537h-3.636a1.82,1.82,0,0,0-1.818,1.818v16.364a.606.606,0,0,0,.606.606h6.061a.606.606,0,0,0,.606-.606V250.355A1.82,1.82,0,0,0,142.022,248.537Zm.606,17.576h-4.849V250.355a.607.607,0,0,1,.606-.606h3.636a.607.607,0,0,1,.606.606v15.758Z" transform="translate(-126.87 -230.956)" fill="#646d82"/>
            <path id="Path_2031" data-name="Path 2031" d="M278.555,299.737h-3.636a1.82,1.82,0,0,0-1.818,1.818v12.727a.606.606,0,0,0,.606.606h6.061a.606.606,0,0,0,.606-.606V301.555A1.82,1.82,0,0,0,278.555,299.737Zm.606,13.939h-4.849V301.555a.607.607,0,0,1,.606-.606h3.636a.607.607,0,0,1,.606.606v12.121Z" transform="translate(-253.706 -278.52)" fill="#646d82"/>
            <path id="Path_2032" data-name="Path 2032" d="M415.089,231.47h-3.636a1.82,1.82,0,0,0-1.818,1.818v17.576a.606.606,0,0,0,.606.606H416.3a.606.606,0,0,0,.606-.606V233.288A1.82,1.82,0,0,0,415.089,231.47Zm.606,18.788h-4.848v-16.97a.607.607,0,0,1,.606-.606h3.636a.607.607,0,0,1,.606.606v16.97Z" transform="translate(-380.543 -215.101)" fill="#646d82"/>
            <path id="Path_2033" data-name="Path 2033" d="M30.046,8.263A3.622,3.622,0,1,0,29.4,7.237L25.778,9.5a3.619,3.619,0,0,0-5.215-.222L16.6,6.3a3.636,3.636,0,1,0-6,.684L5.513,13.026a3.636,3.636,0,1,0,.928.78l5.081-6.038a3.612,3.612,0,0,0,4.345-.5l3.967,2.975a3.635,3.635,0,1,0,6.59.279ZM32.76,3.427a2.424,2.424,0,1,1-2.424,2.424A2.424,2.424,0,0,1,32.76,3.427ZM3.669,18.579a2.424,2.424,0,1,1,2.424-2.424A2.424,2.424,0,0,1,3.669,18.579Zm9.7-11.515a2.424,2.424,0,1,1,2.424-2.424A2.424,2.424,0,0,1,13.366,7.064Zm9.7,7.273a2.424,2.424,0,1,1,2.424-2.424A2.424,2.424,0,0,1,23.063,14.336Z" transform="translate(-0.033 -0.998)" fill="#646d82"/>
        </g>
        </svg>
                                      
  